<?xml version="1.0" encoding="UTF-8"?>
<!-- Generator: Adobe Illustrator 26.1.0, SVG Export Plug-In . SVG Version: 6.00 Build 0)  -->
<svg xmlns="http://www.w3.org/2000/svg" xmlns:xlink="http://www.w3.org/1999/xlink" version="1.1" id="Layer_1" x="0px" y="0px" width="343.749px" height="641.071px" viewBox="0 0 343.749 641.071" xml:space="preserve">
<path id="_x23_000000_00000137830501708548776170000011770129916449904566_" d="M343.258,603.129  c-1.897-8.338-9.006-16.368-21.129-23.868c-8.585-5.311-15.93-7.042-22.372-6.38l-0.005-0.053c-0.424,0.044-42.57,4.35-57.152,1.884  c-0.843-0.142-1.648-0.274-2.419-0.4c-12.84-2.098-15.891-2.597-24.044-25.308c-8.429-23.48-18.083-61.807-21.08-83.693  c-0.324-2.366-0.45-4.551-0.465-6.655c1.264,0.215,3.934,0.589,7.248,0.589c6.885,0,16.513-1.62,21.887-9.659  c0.157-0.237,0.163-0.546,0.014-0.789l-0.292-0.392l-0.413,0.048c-0.606,0.07-3.317,0.355-6.416,0.2  c2.985-1.555,8.176-5.064,10.978-11.653c3.184-7.489,2.474-16.804-2.1-27.685c2.171-7.374,1.205-9.781-0.004-10.897  c-1.651-1.524-4.675-0.998-9.245,1.613c-3.598,2.056-8.422,3.569-12.819,4.635c5.674-2.15,11.568-5.168,15.492-9.264  c10.635-11.098,1.249-38.734,0.144-41.849c-1.181-3.328-1.287-9.605-1.422-17.551c-0.122-7.179-0.274-16.112-1.261-25.985  c-0.593-5.928-2.768-9.957-6.465-11.976c-1.779-0.971-3.743-1.386-5.7-1.462c1.625-3.214,7.813-14.269,19.426-21.909  c5.4-3.552,12.674-5.7,20.375-7.974c10.456-3.087,22.145-6.539,30.946-14.309c0.849-0.75,3.528-3.139,4.319-3.972  c0,0,1.344,0.979,2.299,1.672c1.136-2.993,0.883-5.811,0.661-8.248c0.996,1.468,1.997,3.969,2.611,3.813  c0.54-0.137,1.118-5.767-2.213-13.379c0.339,0.286,0.732,0.642,1.176,1.077c0.235,0.231,0.593,0.288,0.888,0.142  c0.302-0.149,0.478-0.473,0.438-0.805c-1.14-9.428-5.696-12.104-10.101-14.692c-2.29-1.345-4.658-2.736-6.538-5.103  c-5.202-6.549-4.725-26.331-4.495-35.839l0.037-1.578c0.174-7.817-3.452-11.125-5.006-12.181  c21.75-28.157,24.216-40.854,26.594-53.139c1.667-8.612,1.44-29.004,1.257-45.389c-0.097-8.681-0.18-16.177,0.009-20.764  c0.551-13.359,5.799-26.383,9.698-35.017c1.549-3.429,1.292-5.76,0.803-7.113c-0.436-1.207-1.612-1.972-2.894-1.863  C274.95,1.728,246.66,55.762,242.55,76.179c-3.39,16.84-3.024,33.887,1.118,52.115c1.252,5.508,1.706,11.337,1.831,16.054  l-3.355-5.138c-0.499-4.234-10.826-92.816-7.984-135.264c0.058-0.866-0.41-1.642-1.222-2.027c-0.879-0.416-1.898-0.268-2.591,0.382  c-10.529,9.867-20.048,28.669-25.463,50.297c-8.202,32.753-0.241,59.197,5.235,72.044c6.204,14.556,10.456,28.009,11.501,31.408  c-6.917,1.766-11.435,4.7-12.817,5.686c-1.395-1.153-2.887-1.541-4.437-1.157c-6.065,1.503-10.949,14.872-11.614,16.771  c-8.569,6.026-10.241,14.917-10.51,16.849c-3.473,1.776-4.426,3.821-4.687,4.757c-31.344,6.778-34.952,19.341-35.31,23.043  c-0.035,0.359,0.165,0.697,0.499,0.839c0.333,0.145,0.715,0.055,0.952-0.22c0.252-0.294,0.673-0.595,1.123-0.866  c-0.804,2.156-0.685,4.44-0.497,5.791c0.056,0.402,0.376,0.705,0.779,0.737c0.408,0.04,0.781-0.222,0.901-0.617  c0.161-0.53,0.444-0.996,0.746-1.381c-0.252,3.731,0.6,6.314,1.186,7.609c0.173,0.381,0.569,0.596,0.984,0.53  c0.419-0.065,0.734-0.392,0.782-0.813c0.142-1.23,0.459-2.276,0.776-3.069c2.605,12.886,13.138,19.615,20.22,24.141  c7.165,4.579,12.574,10.552,13.306,11.377c0.596,1.946,1.322,3.844,2.348,5.603c-2.774,13.313-2.833,13.349-12.752,18.569  c-0.17,0.089-0.357,0.188-0.533,0.281c-1.671-0.308-11.701-1.971-18.627,0.999c-7.207,3.088-16.458,16.948-19.13,26.258  c-0.318,1.108-0.888,2.117-1.668,2.966c-8.005,8.705-14.822,18.271-19.968,28.202c-2.264,0.178-16.799,0.897-24.25-9.068  c-0.345-0.949-1.654-4.446-2.657-5.835c2.434-5.475,2.711-12.653,2.906-17.924l0.034-0.911c0.203-5.266,6.636-9.693,12.312-13.598  c1.794-1.233,3.487-2.399,4.998-3.581c2.502-1.957,3.557-4.573,2.97-7.366c-0.829-3.944-4.816-7.67-9.481-8.859  c-3.54-0.904-7.56-0.053-11.034,2.331c-3.924,2.691-6.495,6.919-7.054,11.6c-0.543,4.55-1.764,7.79-2.841,9.889  c-0.036-1.339-0.434-2.374-0.67-2.868c1.49-3.53,0.549-6.188-0.071-7.368c0.881-0.66,2.205-2.434,3.597-7.111  c0.634-2.129,0.569-3.701-0.198-4.806c-1.129-1.627-3.487-1.787-5.566-1.929c-0.929-0.063-1.806-0.123-2.505-0.297  c-2.702-0.675-2.056-4.251-2.027-4.403l0.152-0.801l-0.814,0.029c-7.14,0.25-8.929,4.972-9.309,6.416  c-5.16,1.758-5.645,6.312-5.674,7.637c-3.368,2.702-3.897,7.301-3.979,8.831c-0.469,0.119-0.898,0.222-1.273,0.302  C35.174,264.971,16.048,264.81,6.05,267.79l-0.235,0.07c-2.182,0.636-5.532,3.069-5.797,6.269c-0.283,3.421,2.76,6.688,9.043,9.714  c12.952,6.236,22.023,16.344,24.093,18.781c-0.789,0.575-1.453,1.269-1.939,2.12c-2.424,4.242-1.274,7.649-0.48,9.176  c-0.144,0.033-0.288,0.043-0.432,0.087c-2.882,0.864-5.033,3.535-6.392,7.939c-3.149,10.202,3.973,18.203,5.793,19.954  c0.485,0.467,0.739,0.692,0.957,0.805c-0.384,0.918-0.76,2.012-1.128,3.343c-4.591,4.201-6.133,10.708-3.663,15.545  c2.122,4.157,6.608,5.615,8.399,6.044c-0.173,0.426-0.312,0.768-0.346,0.862c-0.513,1.401-0.528,1.666-0.716,2.397  c-7.264,0.959-8.124,6.923-8.207,8.902c-1.914,0.334-7.247,2.485-8.085,16.02c-0.876,14.151,6.975,17.921,8.966,18.645  c0.408,3.529,1.598,5.915,3.538,7.097c1.618,0.986,3.336,0.869,4.349,0.66c-0.034,11.691,3.5,23.403,8.714,28.712  c2.041,2.078,4.254,3.132,6.578,3.132c1.939,0,3.593-0.71,4.918-2.11c3.847-4.07,3.684-12.736,3.625-14.249  c3.265-5.092,4.45-9.851,3.522-14.148c-0.958-4.436-3.878-6.982-4.928-7.773l0.571-2.657c1.883,0.486,3.311,0.227,4.253-0.774  c3-3.191-0.611-12.905-1.372-14.838c4.395-12.992-4.486-23.029-6.436-25.026c1.522,0.503,2.964,0.768,4.31,0.768  c1.623,0,3.113-0.365,4.461-1.096c3.531-1.915,5.054-5.782,5.589-7.568c3.401,1.98,9.209,1.347,10.612,1.156  c1.297,1.155,7.904,6.399,21.026,6.399c1.605,0,3.331-0.099,5.134-0.274c-11.45,37.299-3.668,66.97-3.385,68.01  c4.086,34.976,10.206,65.393,15.124,89.835l0.347,1.727c3.559,17.695,5.194,36.308,5.809,44.907  c-12.639,5.315-46.3,5.33-48.472,5.322c-3.129-1.849-6.502-3.249-10.006-4.084c-5.059-1.206-12.585-2.346-19.706-0.921  c-10.192,2.038-27.001,11.477-32.051,23.897c-2.615,6.43-1.826,12.833,2.343,19.035c-0.292,2.124,0.178,4.063,1.405,5.786  c5.92,8.315,27.816,8.912,31.476,8.953c0.503,1.39,1.486,2.576,2.938,3.538c3.534,2.341,9.548,3.195,16.415,3.195  c16.421-0.001,37.701-4.887,41.474-6.005c0.469-0.139,47.168-14.33,54.534-29.18c1.143-2.304,1.364-4.56,0.519-6.653  c-0.191-0.474-0.625-1.455-0.805-1.88c-3.1-7.342-14.582-35.517-19.931-62.262c-5.754-28.772-4.189-56.76-3.927-60.726  c3.767-0.887,8.888-1.445,15.643-0.931l0.064,0.005c0.358,0.026,6.358,0.659,10.806,12.262  c3.893,10.156,20.053,58.552,27.984,109.77c0.159,1.024,0.605,1.964,1.289,2.718c4.072,4.49,20.102,20.018,55.378,31.298  c22.446,7.179,40.946,10.922,53.041,10.922c5.811-0.001,10.144-0.865,12.725-2.628c1.573-1.075,2.496-2.464,2.751-4.135  c3.512-0.353,22.27-2.6,24.289-10.47c0.695-2.711,0.584-5.518-0.372-8.478C342.631,613.641,344.676,609.361,343.258,603.129z   M197.785,373.231c-9.274,4.658-19.248,5.347-21.854,5.446c0.016-0.868,0.047-1.762,0.107-2.705  c1.254-19.707,13.535-36.682,16.678-40.726C196.695,341.452,201.016,353.22,197.785,373.231z"></path>
<path id="_x23_000000" d="M250.277,138.735c0.354,2.157,2.1,3.245,3.673,3.366c0.101,0.008,0.203,0.011,0.307,0.011  c1.498,0,3.188-0.829,3.822-2.764c3.178-9.7,5.045-19.411,5.547-28.863c1.29-24.295,7.914-73.014,12.923-84.62  c0.13-0.3,0.659-1.987,1.394-3.309c0.49-0.882-2.325,1.938-2.875,2.419c-3.925,3.426-19.699,18.675-25.479,46.881  c-5.773,28.173-2.135,49.961,0.274,64.378L250.277,138.735z M250.862,72.119c5.218-25.464,18.663-40.181,23.827-45.045  c-5.214,14.828-11.246,62.337-12.362,83.343c-0.496,9.338-2.341,18.936-5.483,28.527c-0.49,1.494-1.813,1.931-2.793,1.861  c-0.988-0.076-2.234-0.719-2.49-2.28l-0.415-2.503C248.753,121.698,245.138,100.054,250.862,72.119z M160.129,206.766  c1.306-0.042,3.228,0.338,4.638,0.727c5.605,1.548,11.588,3.978,14.262,5.111c0.887,0.376,1.331,0.942,1.116,1.316  c-0.214,0.373-0.788,0.235-1.715-0.157c-2.701-1.143-8.611-3.536-14.102-5.042C162.985,208.352,159.063,206.8,160.129,206.766z   M206.872,202.045c-4.559-0.662-8.993,0.299-13.544,0.592C197.367,200.57,202.8,199.604,206.872,202.045z M205.595,197.307  c-3.061,0.486-5.703,0.248-8.78,0.457C199.23,195.815,202.915,195.993,205.595,197.307z M194.355,216.103  c-0.005-0.617,0.907-0.672,2.373-0.673c8.795-0.01,39.976,0.04,60.378,1.139c5.415,0.292,12.768,1.571,9.581,1.54  c-2.222-0.021-4.108,0.06-9.354-0.227c-20.399-1.117-51.984-1.164-60.692-1.152C195.232,216.732,194.36,216.695,194.355,216.103z   M223.553,28.204c0.045-0.365,0.056-1.759,0.229-2.832c0.261-1.62-1.533,1.753-1.912,2.439c-2.819,5.1-14.236,27.024-13.684,46.494  c0.636,22.49,2.452,32.252,8.83,47.476c1.354,3.233,3.193,7.522,4.878,11.421c0.573,1.326,1.743,1.868,2.825,1.868  c0.208,0,0.413-0.02,0.61-0.058c1.218-0.239,2.464-1.252,2.498-2.975c0.253-12.556,0.432-35.057-1.21-44.69  C223.726,70.385,221.82,42.391,223.553,28.204z M226.526,132.011c-0.022,1.068-0.794,1.597-1.448,1.726  c-0.655,0.13-1.569-0.07-1.991-1.049c-1.682-3.894-3.52-8.179-4.873-11.408c-6.378-15.224-8.091-24.45-8.729-47.01  c-0.492-17.376,8.756-36.817,12.545-44.015c-1.324,14.844,0.542,41.102,3.305,57.312C226.96,97.093,226.779,119.502,226.526,132.011  z M56.254,354.963c0.556,0.98,0.956,1.882,1.187,2.34c0.022,0.046,0.008,0.079-0.02,0.093c-0.023,0.019-0.062,0.019-0.099-0.017  c-0.384-0.359-1.055-1.057-1.834-1.767c-0.852-0.649-1.736-1.373-2.569-1.819c-0.297-0.176-0.561-0.371-0.853-0.508  c-0.295-0.131-0.584-0.259-0.873-0.387c-0.557-0.287-1.168-0.467-1.822-0.685c-1.313-0.409-2.883-0.851-5.26-1.018  c-1.957-0.129-3.542-0.24-4.795-0.385c-1.25-0.138-2.164-0.288-2.681-0.309c-0.063-0.002-0.104-0.033-0.117-0.073  c-0.014-0.039,0.001-0.088,0.054-0.127c0.427-0.309,1.176-0.903,2.43-1.448c1.246-0.533,3.022-1.041,5.33-0.891  c2.791,0.194,4.68,0.906,6.136,1.645c0.73,0.383,1.377,0.745,1.948,1.219c0.289,0.221,0.579,0.443,0.874,0.668  c0.287,0.231,0.539,0.519,0.821,0.787C54.906,352.979,55.625,354.042,56.254,354.963z M77.35,350.428  c0.796,4.433-2.229,9.879-7.064,10.034C74.307,358.453,76.152,354.651,77.35,350.428z M203.98,166.302  c-1.613,0.801-2.879,2.17-4.342,3.307c0.91-1.721,2.062-3.372,3.789-4.407c4.477-2.09,4.309,4.965,3.318,7.543  C206.408,171.194,206.639,164.859,203.98,166.302z M343.258,603.129c-1.897-8.338-9.006-16.368-21.129-23.868  c-8.585-5.311-15.93-7.042-22.372-6.38l-0.005-0.053c-0.424,0.044-42.57,4.35-57.152,1.884c-0.843-0.142-1.648-0.274-2.419-0.4  c-12.84-2.098-15.891-2.597-24.044-25.308c-8.429-23.48-18.083-61.807-21.08-83.693c-0.324-2.366-0.45-4.551-0.465-6.655  c1.264,0.215,3.934,0.589,7.248,0.589c6.885,0,16.513-1.62,21.887-9.659c0.157-0.237,0.163-0.546,0.014-0.789l-0.292-0.392  l-0.413,0.048c-0.606,0.07-3.317,0.355-6.416,0.2c2.985-1.555,8.176-5.064,10.978-11.653c3.184-7.489,2.474-16.804-2.1-27.685  c2.171-7.374,1.205-9.781-0.004-10.897c-1.651-1.524-4.675-0.998-9.245,1.613c-3.598,2.056-8.422,3.569-12.819,4.635  c5.674-2.15,11.568-5.168,15.492-9.264c10.635-11.098,1.249-38.734,0.144-41.849c-1.181-3.328-1.287-9.605-1.422-17.551  c-0.122-7.179-0.274-16.112-1.261-25.985c-0.593-5.928-2.768-9.957-6.465-11.976c-1.779-0.971-3.743-1.386-5.7-1.462  c1.625-3.214,7.813-14.269,19.426-21.909c5.4-3.552,12.674-5.7,20.375-7.974c10.456-3.087,22.145-6.539,30.946-14.309  c0.849-0.75,3.528-3.139,4.319-3.972c0,0,1.344,0.979,2.299,1.672c1.136-2.993,0.883-5.811,0.661-8.248  c0.996,1.468,1.997,3.969,2.611,3.813c0.54-0.137,1.118-5.767-2.213-13.379c0.339,0.286,0.732,0.642,1.176,1.077  c0.235,0.231,0.593,0.288,0.888,0.142c0.302-0.149,0.478-0.473,0.438-0.805c-1.14-9.428-5.696-12.104-10.101-14.692  c-2.29-1.345-4.658-2.736-6.538-5.103c-5.202-6.549-4.725-26.331-4.495-35.839l0.037-1.578c0.174-7.817-3.452-11.125-5.006-12.181  c21.75-28.157,24.216-40.854,26.594-53.139c1.667-8.612,1.44-29.004,1.257-45.389c-0.097-8.681-0.18-16.177,0.009-20.764  c0.551-13.359,5.799-26.383,9.698-35.017c1.549-3.429,1.292-5.76,0.803-7.113c-0.436-1.207-1.612-1.972-2.894-1.863  C274.95,1.728,246.66,55.762,242.55,76.179c-3.39,16.84-3.024,33.887,1.118,52.115c1.252,5.508,1.706,11.337,1.831,16.054  l-3.355-5.138c-0.499-4.234-10.826-92.816-7.984-135.264c0.058-0.866-0.41-1.642-1.222-2.027c-0.879-0.416-1.898-0.268-2.591,0.382  c-10.529,9.867-20.048,28.669-25.463,50.297c-8.202,32.753-0.241,59.197,5.235,72.044c6.204,14.556,10.456,28.009,11.501,31.408  c-6.917,1.766-11.435,4.7-12.817,5.686c-1.395-1.153-2.887-1.541-4.437-1.157c-6.065,1.503-10.949,14.872-11.614,16.771  c-8.569,6.026-10.241,14.917-10.51,16.849c-3.473,1.776-4.426,3.821-4.687,4.757c-31.344,6.778-34.952,19.341-35.31,23.043  c-0.035,0.359,0.165,0.697,0.499,0.839c0.333,0.145,0.715,0.055,0.952-0.22c0.252-0.294,0.673-0.595,1.123-0.866  c-0.804,2.156-0.685,4.44-0.497,5.791c0.056,0.402,0.376,0.705,0.779,0.737c0.408,0.04,0.781-0.222,0.901-0.617  c0.161-0.53,0.444-0.996,0.746-1.381c-0.252,3.731,0.6,6.314,1.186,7.609c0.173,0.381,0.569,0.596,0.984,0.53  c0.419-0.065,0.734-0.392,0.782-0.813c0.142-1.23,0.459-2.276,0.776-3.069c2.605,12.886,13.138,19.615,20.22,24.141  c7.165,4.579,12.574,10.552,13.306,11.377c0.596,1.946,1.322,3.844,2.348,5.603c-2.774,13.313-2.833,13.349-12.752,18.569  c-0.17,0.089-0.357,0.188-0.533,0.281c-1.671-0.308-11.701-1.971-18.627,0.999c-7.207,3.088-16.458,16.948-19.13,26.258  c-0.318,1.108-0.888,2.117-1.668,2.966c-8.005,8.705-14.822,18.271-19.968,28.202c-2.264,0.178-16.799,0.897-24.25-9.068  c-0.345-0.949-1.654-4.446-2.657-5.835c2.434-5.475,2.711-12.653,2.906-17.924l0.034-0.911c0.203-5.266,6.636-9.693,12.312-13.598  c1.794-1.233,3.487-2.399,4.998-3.581c2.502-1.957,3.557-4.573,2.97-7.366c-0.829-3.944-4.816-7.67-9.481-8.859  c-3.54-0.904-7.56-0.053-11.034,2.331c-3.924,2.691-6.495,6.919-7.054,11.6c-0.543,4.55-1.764,7.79-2.841,9.889  c-0.036-1.339-0.434-2.374-0.67-2.868c1.49-3.53,0.549-6.188-0.071-7.368c0.881-0.66,2.205-2.434,3.597-7.111  c0.634-2.129,0.569-3.701-0.198-4.806c-1.129-1.627-3.487-1.787-5.566-1.929c-0.929-0.063-1.806-0.123-2.505-0.297  c-2.702-0.675-2.056-4.251-2.027-4.403l0.152-0.801l-0.814,0.029c-7.14,0.25-8.929,4.972-9.309,6.416  c-5.16,1.758-5.645,6.312-5.674,7.637c-3.368,2.702-3.897,7.301-3.979,8.831c-0.469,0.119-0.898,0.222-1.273,0.302  C35.174,264.971,16.048,264.81,6.05,267.79l-0.235,0.07c-2.182,0.636-5.532,3.069-5.797,6.269c-0.283,3.421,2.76,6.688,9.043,9.714  c12.952,6.236,22.023,16.344,24.093,18.781c-0.789,0.575-1.453,1.269-1.939,2.12c-2.424,4.242-1.274,7.649-0.48,9.176  c-0.144,0.033-0.288,0.043-0.432,0.087c-2.882,0.864-5.033,3.535-6.392,7.939c-3.149,10.202,3.973,18.203,5.793,19.954  c0.485,0.467,0.739,0.692,0.957,0.805c-0.384,0.918-0.76,2.012-1.128,3.343c-4.591,4.201-6.133,10.708-3.663,15.545  c2.122,4.157,6.608,5.615,8.399,6.044c-0.173,0.426-0.312,0.768-0.346,0.862c-0.513,1.401-0.528,1.666-0.716,2.397  c-7.264,0.959-8.124,6.923-8.207,8.902c-1.914,0.334-7.247,2.485-8.085,16.02c-0.876,14.151,6.975,17.921,8.966,18.645  c0.408,3.529,1.598,5.915,3.538,7.097c1.618,0.986,3.336,0.869,4.349,0.66c-0.034,11.691,3.5,23.403,8.714,28.712  c2.041,2.078,4.254,3.132,6.578,3.132c1.939,0,3.593-0.71,4.918-2.11c3.847-4.07,3.684-12.736,3.625-14.249  c3.265-5.092,4.45-9.851,3.522-14.148c-0.958-4.436-3.878-6.982-4.928-7.773l0.571-2.657c1.883,0.486,3.311,0.227,4.253-0.774  c3-3.191-0.611-12.905-1.372-14.838c4.395-12.992-4.486-23.029-6.436-25.026c1.522,0.503,2.964,0.768,4.31,0.768  c1.623,0,3.113-0.365,4.461-1.096c3.531-1.915,5.054-5.782,5.589-7.568c3.401,1.98,9.209,1.347,10.612,1.156  c1.297,1.155,7.904,6.399,21.026,6.399c1.605,0,3.331-0.099,5.134-0.274c-11.45,37.299-3.668,66.97-3.385,68.01  c4.086,34.976,10.206,65.393,15.124,89.835l0.347,1.727c3.559,17.695,5.194,36.308,5.809,44.907  c-12.639,5.315-46.3,5.33-48.472,5.322c-3.129-1.849-6.502-3.249-10.006-4.084c-5.059-1.206-12.585-2.346-19.706-0.921  c-10.192,2.038-27.001,11.477-32.051,23.897c-2.615,6.43-1.826,12.833,2.343,19.035c-0.292,2.124,0.178,4.063,1.405,5.786  c5.92,8.315,27.816,8.912,31.476,8.953c0.503,1.39,1.486,2.576,2.938,3.538c3.534,2.341,9.548,3.195,16.415,3.195  c16.421-0.001,37.701-4.887,41.474-6.005c0.469-0.139,47.168-14.33,54.534-29.18c1.143-2.304,1.364-4.56,0.519-6.653  c-0.191-0.474-0.625-1.455-0.805-1.88c-3.1-7.342-14.582-35.517-19.931-62.262c-5.754-28.772-4.189-56.76-3.927-60.726  c3.767-0.887,8.888-1.445,15.643-0.931l0.064,0.005c0.358,0.026,6.358,0.659,10.806,12.262  c3.893,10.156,20.053,58.552,27.984,109.77c0.159,1.024,0.605,1.964,1.289,2.718c4.072,4.49,20.102,20.018,55.378,31.298  c22.446,7.179,40.946,10.922,53.041,10.922c5.811-0.001,10.144-0.865,12.725-2.628c1.573-1.075,2.496-2.464,2.751-4.135  c3.512-0.353,22.27-2.6,24.289-10.47c0.695-2.711,0.584-5.518-0.372-8.478C342.631,613.641,344.676,609.361,343.258,603.129z   M226.399,436.492c-3.469,8.16-10.817,11.316-12.254,11.865c-0.313,0.119-0.504,0.435-0.462,0.768l0.138,0.582l0.506,0.061  c2.979,0.356,5.885,0.234,7.598,0.099c-7.996,10.364-24.244,8.026-27.333,7.471c0.037-2.581,0.228-5.06,0.426-7.609  c0.001-0.014,0.002-0.028,0.003-0.042c23.345-1.389,27.788-22.202,27.831-22.414l0.156-0.778h-4.37  c3.006-6.462,4.988-11.409,6.248-15.227C228.786,421.188,229.3,429.669,226.399,436.492z M216.893,401.162  c3.901-2.229,6.571-2.848,7.718-1.787c1.697,1.566,1.759,7.608-7.584,27.494l-0.435,0.927h4.798  c-0.999,3.745-6.349,19.314-26.268,20.583c0.581-7.679,0.947-15.868-2.8-28.981c0.051-0.083,0.109-0.176,0.192-0.311  c0.211-0.32,0.468-0.813,0.859-1.357c0.756-1.106,1.898-2.524,3.31-3.797c1.407-1.279,3.095-2.367,4.638-3.119  c1.548-0.746,2.923-1.178,3.661-1.463c-3.85-0.112-8.075,2.195-10.444,4.749c-1.225,1.255-2.09,2.499-2.648,3.404  c-0.033,0.058-0.057,0.1-0.088,0.155c-1.085-3.417-2.344-6.25-3.663-8.718c0.974-0.185,2.415-0.479,4.166-0.897  C193.944,407.848,208.424,406.001,216.893,401.162z M204.678,161.841c1.266-0.314,2.455,0.081,3.641,1.203l0.408,0.386l0.441-0.347  c0.088-0.069,8.725-6.7,22.368-7.087c-0.677,0.664-1.348,1.434-2.006,2.326c0.955-0.911,1.867-1.665,2.737-2.278  c0.035-0.025,0.592-0.39,0.616-0.405c8.436-5.406,12.708,2.981,13.299,12.938c0.159,1.38,0.216,2.769,0.28,4.168  c0.419-2.772,0.463-5.598,0.178-8.412c-0.169-2.52-0.744-4.705-1.613-6.476c-1.812-14.573-8.76-20.824-12.746-23.254  c-0.345-0.209-0.782-0.135-1.039,0.174c-0.257,0.309-0.247,0.752,0.022,1.052c2.727,3.037,4.561,8.043,5.47,10.99  c-6.69-6.138-15.975-8.726-18.272-9.293c-0.356-0.085-0.705,0.094-0.838,0.43l-0.177,0.614l0.494,0.279  c3.524,1.993,7.848,6.08,10.207,8.441c-2.934-0.649-5.452-0.362-6.584-0.161c-0.377,0.066-0.649,0.39-0.648,0.77  c0.001,0.385,0.279,0.713,0.663,0.779c4.09,0.695,8.82,4.437,10.643,5.993c-3.436,0.041-6.558,0.459-9.334,1.082  c-1.01-3.292-5.299-16.899-11.574-31.622c-5.412-12.697-13.279-38.833-5.17-71.217c7.939-31.705,21.212-46.029,25.091-49.664  c0.364-0.342,0.844-0.297,1.145-0.156c0.155,0.074,0.513,0.295,0.481,0.764c-2.905,43.395,7.899,134.739,8.008,135.656l0.018,0.151  l4.109,6.293c0.352,0.538,0.542,1.169,0.539,1.812c-0.005,1.214-0.028,2.294-0.058,3.201c-0.061,1.875-0.362,2.592,0.392,2.75  c0.73,0.153,0.84-0.712,0.902-2.506c0.164-4.707,0.175-14.363-1.836-23.21c-4.101-18.045-4.464-34.913-1.111-51.57  c4.433-22.022,33.091-73.575,50.795-75.13c0.694-0.052,1.321,0.356,1.557,1.009c0.406,1.126,0.604,3.104-0.765,6.136  c-3.944,8.733-9.252,21.914-9.812,35.499c-0.191,4.62-0.107,12.133-0.01,20.832c0.182,16.327,0.408,36.645-1.233,45.127  c-2.447,12.643-4.977,25.717-29.137,56.16c0,0,2.37-0.904,3.023-1.742c1.24,0.812,4.666,3.726,4.501,11.121l-0.037,1.576  c-0.221,9.162-0.604,25.264,3.061,33.702c-3.685-1.393-13.498-4.18-29.976-2.596c10.796-15.167,3.371-38.435,0.772-45.352  c-0.258-0.687-0.808-1.2-1.51-1.409c-0.699-0.209-1.435-0.08-2.023,0.349c-7.242,5.299-12.377,13.263-18.945,29.386  c-2.834,6.957-3.359,12.572-1.56,16.689c0.777,1.778,1.847,2.918,2.729,3.62c-16.575,2.597-20.716,0.866-24.124-0.567  c-0.855-0.359-1.663-0.699-2.614-0.954c-0.842-0.226-1.62-0.379-2.343-0.521c-0.878-0.172-1.659-0.328-2.366-0.59  c13.433-4.909,16.978-27.097,17.757-33.989c0.069-0.601-0.208-1.175-0.721-1.497c-0.515-0.325-1.157-0.324-1.672,0.001l-4.598,2.894  C196.122,172.228,200.184,162.953,204.678,161.841z M238.633,148.762c-0.239-0.983-1.707-6.702-4.475-11.186  c3.372,2.892,7.423,8.23,9.155,17.719c-0.34-0.372-0.7-0.703-1.077-0.994l0.013-0.006  C241.334,152.224,240.079,150.393,238.633,148.762z M240.253,153.217c-0.993-0.349-2.055-0.456-3.156-0.293  c-1.955-2.426-4.168-3.91-6.319-4.798c-0.567-0.606-4.747-5.03-8.997-8.26C227.062,141.665,236.019,145.688,240.253,153.217z   M235.696,153.272c-0.656,0.228-1.32,0.547-1.985,0.971c-0.882-0.8-4.932-4.346-9.199-6.054  C227.524,148.204,232.045,149.067,235.696,153.272z M222.376,198.529c0.885,1.129,3.711,4.155,8.565,4.155  c2.049,0,4.461-0.548,7.237-1.997c-0.957,2.702-2.303,5.277-4.14,7.622c-3.153,0.353-6.538,0.865-10.158,1.573  c-2.431,0.475-4.656,0.878-6.712,1.222c-0.524-0.247-2.339-1.259-3.467-3.874c-0.535-1.24-0.809-2.681-0.868-4.271  C215.854,200.89,219.15,199.481,222.376,198.529z M212.851,201.38c0.155-2.854,0.955-6.139,2.44-9.786  c6.467-15.873,11.484-23.686,18.509-28.827c0.256-0.187,0.577-0.242,0.884-0.152c0.309,0.092,0.551,0.318,0.664,0.62  c1.914,5.094,6.508,19.259,4.202,32.198C236.557,195.184,223.461,194.56,212.851,201.38z M192.258,212.698  c-1.163,1.447-4.03,4.675-6.697,4.971c-0.379,0.043-0.678-0.058-0.927-0.318c-1.068-1.117-1.041-4.721-0.748-7.19  c0.628,0.191,1.302,0.34,2.039,0.485c0.696,0.137,1.446,0.284,2.257,0.501c0.864,0.232,1.633,0.555,2.446,0.897  C191.143,212.26,191.676,212.483,192.258,212.698z M182.277,207.902c-1.174-0.996-2.129-2.805-3.023-6.329  c1.097-0.604,2.573-1.103,4.193-1.512c0.543,1.05,2.105,3.244,5.739,3.71C187.231,205.698,184.947,207.161,182.277,207.902z   M183.129,195.209l0.328-0.159l0.035-0.364c0.01-0.1,1.073-10.092,10.166-16.383l6.209-3.907c0.129-0.081,0.245-0.028,0.288-0.001  c0.052,0.032,0.137,0.108,0.12,0.25c-0.479,4.233-2.025,14.406-6.309,22.496c-1.833,0.139-10.628,0.912-15.023,3.119  c-0.058-0.259-0.116-0.509-0.174-0.784C178.838,199.088,179.383,197.025,183.129,195.209z M184.204,261.902  c-0.555-2.125-1.129-4.323-1.937-6.404c0,0,0.133,4.643,0.678,6.733c0.097,0.371,0.194,0.743,0.293,1.114  c-2.31-2.36-6.612-6.421-11.842-9.763c-7.231-4.62-18.158-11.603-19.959-25.18l-0.218-1.646l-0.958,1.357  c-0.051,0.073-1.085,1.56-1.622,3.971c-0.499-1.604-0.913-4.091-0.409-7.4l0.222-1.456l-1.225,0.817  c-0.055,0.036-0.993,0.671-1.741,1.755c-0.03-1.567,0.222-3.553,1.375-5.154l1.315-1.826l-2.087,0.843  c-0.176,0.071-1.345,0.554-2.342,1.226c1.052-4.476,6.535-14.652,33.867-20.611c1.325,6.045,2.836,8.312,5.019,9.393  c-0.217,1.65-0.714,6.723,1.061,8.579c0.459,0.479,1.044,0.728,1.705,0.728c0.1,0,0.203-0.006,0.306-0.017  c3.452-0.384,6.878-4.535,7.869-5.828c1.781,0.521,4.099,0.918,7.631,0.918c4.821,0,11.896-0.737,22.927-2.894  c27.09-5.299,41.078,0.677,42.567,1.368c0.251,0.416,0.506,0.823,0.787,1.177c2.03,2.557,4.505,4.01,6.897,5.416  c4.079,2.396,7.945,4.667,9.261,12.3c-1.642-1.42-3.564-1.42-3.564-1.42l0.51,0.956c0.033,0.062,2.757,5.236,3.231,10.975  c-0.985-2.042-3.668-3.761-3.668-3.761l0.486,1.844c0.012,0.047,0.858,3.387-0.078,7.318c-4.758-3.134-15.578-7.136-27.968-11.099  c4.954-0.105,7.73-2.036,7.73-2.036c-0.109,0.024-4.693,1.01-11.987,0.694c-15.252-3.196-22.984-6.781-32.68-9.399  c-2.684-1.48-5.409-3.189-8.154-5.145c15.991,1.73,42.732,4.864,58.535,8.031c4.336,0.869,6.138,1.278,8.28,1.801  c2.506,0.611-3.489-2.163-7.776-3.032c-16.688-3.384-45.452-6.678-61.171-8.345l-0.239-0.025c-3.481-0.369-6.305-0.656-8.192-0.845  c-1.375-0.138-2.261-0.206-2.371,0.385c-0.107,0.574,0.658,0.752,2.153,0.902c1.844,0.186,4.651,0.473,8.13,0.844  c-0.14,0.488-0.44,1.36-0.976,2.308c-2.698-0.701-4.865-1.255-6.326-1.625c-1.07-0.271-2.111-0.427-2.267,0.119  c-0.15,0.524,0.69,0.823,1.869,1.123c1.365,0.348,3.405,0.871,5.958,1.536c-0.703,0.907-1.647,1.768-2.914,2.317  c-3.327,1.442-7.844,0.412-13.427-3.061l-0.242-0.15l-0.275,0.076c-0.054,0.015-5.618,1.51-8.367-0.896  c-0.716-0.627-1.175-1.49-1.395-2.566c0.437-0.032,0.843-0.062,1.215-0.089c1.54-0.111,2.467-0.078,2.457-0.718  c-0.01-0.648-1.109-0.684-2.528-0.583c-0.395,0.028-0.829,0.06-1.296,0.094c-0.014-0.536,0.022-1.117,0.102-1.734  c0.624,0.083,1.184,0.159,1.668,0.225c1.219,0.168,1.917,0.231,2.019-0.267c0.103-0.501-0.679-0.862-1.779-1.015  c-2.605-0.362-7.457-1.001-12.514-1.488c-0.369-0.047-0.968-0.091-0.968-0.091c-3.18-0.292-6.39-0.513-9.128-0.557  c-1.713-0.028-4.152,0.43-5.382,0.899c-0.575,0.219,3.683,0.376,5.33,0.403c2.739,0.045,5.991,0.274,9.215,0.573  c0.422,0.039,0.83,0.157,1.219,0.325c0.004,0.002,0.008,0.004,0.013,0.005c0.485,0.209,0.907,0.528,1.259,0.921  c0.49,0.547,1.216,1.369,2.039,2.34c-5.613,0.466-12.273,1.092-16.99,1.768c-1.759,0.252-5.444,1.702-4.331,1.657  c1.306-0.052,2.697-0.105,4.336-0.342c4.916-0.711,12.15-1.378,18.006-1.858c2.108,2.575,4.421,5.694,4.938,7.556  c0.199,0.717,0.403,1.872,0.637,3.209c1.011,5.751,2.701,15.333,8.612,20.383c3.948,15.049,9.92,18.172,18.729,18.171  c1.915,0,3.964-0.147,6.155-0.351c6.583-0.613,13.038-9.359,19.281-17.818c5.522-7.483,10.736-14.548,15.233-14.985  c0.064,0.001,0.127,0.001,0.191,0.002c0.421,0.043,0.833,0.081,1.242,0.115c3.12,0.847,4.321,5.421,4.334,5.475  c0,0,0.034-3.74-1.424-5.181c12.481,3.883,23.837,7.873,29.693,11.071l-0.74,0.836c-8.773,9.901-21.437,13.639-33.685,17.256  c-7.537,2.225-14.655,4.345-20.146,7.788c-1.264,0.333-3.53,0.964-5.762,1.692c4.704-3.562,8.166-7.393,10.556-10.543  c2.964-3.905,3.086-4.3,3.96-6.068c0.416-0.842-3.288,3.697-4.947,5.573c-15.607,17.644-22.969,16.956-31.32,13.956  C187.579,274.827,185.94,268.549,184.204,261.902z M184.772,231.167c0.241,4.253,1.524,8.728,2.425,10.146  c-0.62-3.94-1.19-8.442-1.102-11.932c0.047-1.739,0.216-3.22,0.469-4.228c0.057-0.355,0.148-0.621,0.227-0.854  c5.653,3.36,10.343,4.294,13.935,2.728c0.552-0.24,1.033-0.539,1.484-0.858c-2.48,7.621-3.054,18.391-3.185,22.587  c-0.019,0.618-0.526,1.1-1.144,1.1h-12.429c-5.536-4.752-7.166-14.034-8.145-19.604c-0.239-1.365-0.431-2.447-0.637-3.22l0.24-4.363  c0.042,0.039,0.077,0.083,0.121,0.121c2.444,2.138,6.414,1.775,8.385,1.424c-0.033,0.096-0.057,0.168-0.094,0.275  c-0.069,0.299-0.147,0.639-0.233,1.011C184.779,226.995,184.633,229.047,184.772,231.167z M198.712,251.158  c0.87,0,1.58-0.689,1.604-1.559c0.047-1.674,0.157-4.498,0.41-7.488c4.426-2.81,8.507-1.677,10.226-0.957  c-2.999,2.511-6.767,8.047-6.479,10.926c3.944-8,8.027-11.72,13.796-13.559c7.568-2.413,14.978,0.591,17.276,1.678  c-2.527,2.772-5.122,6.28-7.787,9.892c-6.073,8.228-12.352,16.737-18.355,17.295c-11.4,1.063-18.691,0.827-23.337-16.228H198.712z   M217.886,237.277c-2.072,0.659-3.992,1.67-5.78,2.973c-1.329-0.665-6.003-2.576-11.235,0.258  c0.541-5.536,1.582-12.169,3.581-16.595c0.008-0.012,0.015-0.024,0.023-0.036c3.055,0.799,6.724,1.771,10.78,2.869  c11.262,4.214,20.29,6.393,25.87,8.744c-1.52,0.805-3.067,2.096-4.641,3.712C234.542,238.217,226.445,234.553,217.886,237.277z   M205.179,222.709c0.366-0.698,0.63-1.35,0.792-1.846c1.686,1.229,3.364,2.335,5.034,3.381  C208.896,223.684,206.943,223.17,205.179,222.709z M175.178,219.341c0.11,0.611,0.281,1.174,0.522,1.681l-0.191,3.462  c-0.915-1.551-2.208-3.299-3.486-4.899C173.155,219.496,174.219,219.414,175.178,219.341z M171.023,218.357  c-0.657-0.791-1.271-1.506-1.796-2.104c2.514,0.579,4.708,0.56,5.847,0.484c-0.037,0.457-0.039,0.888-0.025,1.307  C173.844,218.134,172.485,218.239,171.023,218.357z M154.951,292.703c5.273-2.26,12.728-1.639,16.189-1.175  c-0.136,0.072-0.261,0.138-0.4,0.213c-12.356,6.6-23.962,15.45-33.955,25.649C139.604,308.393,148.214,295.59,154.951,292.703z   M9.625,282.671c-5.667-2.728-8.541-5.645-8.31-8.434c0.222-2.686,3.278-4.665,4.866-5.128l0.242-0.072  c9.564-2.849,27.862-2.626,43.478,30.424c-1.016,0.119-2.241,0.188-3.615,0.262c-4.024,0.22-8.745,0.487-12.012,2.213  C32.44,299.754,23.11,289.164,9.625,282.671z M32.344,305.389c2.124-3.717,8.995-4.093,14.012-4.367  c1.827-0.1,3.405-0.186,4.628-0.402c0.796-0.14,1.866-0.419,3.104-0.742c4.502-1.174,11.306-2.95,14.174-0.518  c1.083,0.917,1.519,2.378,1.332,4.464c-0.79,8.811-6.426,11.797-8.219,12.531c-0.459-1.06-1.097-1.923-1.932-2.559  c-3.851-2.928-10.702-0.651-15.706,1.013c-1.964,0.653-4.655,1.543-5.135,1.253c-1.229-1.012-3.755-2.394-6.472-2.32  C31.582,312.859,29.936,309.603,32.344,305.389z M25.153,322.33c1.224-3.965,3.082-6.346,5.523-7.078  c2.834-0.849,5.797,0.74,7.1,1.814c0.908,0.747,2.71,0.194,6.372-1.023c4.728-1.574,11.203-3.727,14.508-1.212  c1.668,1.27,2.422,3.717,2.239,7.273c-0.397,7.723-4.553,10.605-7.969,11.663c-6.343,1.962-14.144-0.824-16.309-3.662  c0,0-0.039,1.343,0.361,2.037c-0.008,0.011-0.012,0.018-0.02,0.029c-0.672,0.911-1.679,2.274-2.127,4.878  c-0.18,0.178-0.359,0.349-0.535,0.518c-1.062,1.02-2.088,2.006-3.07,3.92c-0.089-0.06-0.178-0.133-0.299-0.215  C30.559,340.94,21.892,332.9,25.153,322.33z M58.34,397.317l-0.081,0.231l0.092,0.227c1.22,3.018,3.908,11.36,1.721,13.687  c-0.673,0.715-1.871,0.79-3.564,0.23c0.061-2.152-0.341-4.322-1.231-6.218c0.235,4.833-0.013,9.386-1.628,13.936  c0.705-0.787,1.25-1.688,1.694-2.638c0.805,0.597,3.62,2.935,4.51,7.06c0.847,3.919-0.269,8.316-3.29,13.068  c-0.122,0.01-0.276,0.019-0.468,0.022c-0.446,0.02-1.058-0.026-1.703-0.15c-1.301-0.227-2.674-0.825-3.372-0.788  c0.835,1.202,2.391,2.018,3.716,2.236c0.621,0.121,1.17,0.093,1.578,0.061c0.033,2.264-0.125,9.442-3.281,12.781  c-1.083,1.146-2.382,1.703-3.972,1.703c-1.962,0-3.863-0.923-5.65-2.743c-4.713-4.8-7.983-15.17-8.305-25.883  c-0.015-0.507,0.033-0.809,0.105-0.452c0.392,3.242,4.209,5.62,7.222,3.939c2.62-1.817,2.758-5.43,2.413-8.215  c-0.42,2.569-0.8,5.669-3.028,7.152c-2.331,1.065-5.028-0.604-5.623-3.128c-0.359-1.187-0.52-2.471-0.559-3.78  c-0.017-0.566-0.048-0.891-0.048-1.056c0-0.147-0.271,0.364-0.51,0.885c-0.219,0.478-0.476,0.91-0.766,1.154  c-0.786,0.659-2.312,0.97-4.215-0.188c-1.624-0.99-2.968-4.628-2.745-7.06c0.041-0.449,0.402-0.979,0.746-1.525  c0.678-1.114,1.81-2.062,2.12-2.685c-1.469,0.148-2.915,1.293-3.594,2.474c-0.343,0.549-0.515,1.079-0.623,1.475  c-2.094-0.812-8.583-4.377-7.787-17.23c0.913-14.729,7.278-14.859,7.407-14.859c0.001,0,0.001,0,0.002,0l0.725,0.029l-0.05-0.723  c-0.021-0.302-0.423-7.419,7.498-8.206l0.463-0.046l0.106-0.453c0.024-0.103,2.399-10.088,6.965-14.28  c0.153-0.141,0.335-0.226,0.541-0.261c0.633-0.105,1.889-0.249,3.459-0.1c-1.895,3.294-8.42,15.442-9.398,28.01  c-2.624-1.084-5.954-0.983-8.435,0.119c0.633,0.056,1.246,0.055,1.854,0.058c4.003,0.073,8.247,0.905,10.561,4.575  c-0.361,0.283-0.709,0.584-1.023,0.906c0.519-0.13,0.981-0.325,1.457-0.468c3.332-1.148,6.554-0.373,9.413,1.827  c-0.94-2.088-3.029-3.345-5.222-3.57c-1.291-10.893,4.837-26.374,6.236-29.727c0.778,0.45,1.558,0.994,2.317,1.681  c-0.343,1.709-1.71,8.859-1.33,12.266l0.027,0.243l0.18,0.165C52.078,373.188,63.16,383.527,58.34,397.317z M43.226,388.444  c-1.129,0.1-2.232,0.481-3.164,1.182c-0.025,0.018-0.044,0.042-0.068,0.06c-0.37-1.803-1.414-3.128-2.811-4.018  c0.845-13.184,8.13-26.096,9.532-28.469c0.914,0.181,1.894,0.48,2.893,0.931C48.227,361.388,41.946,377.004,43.226,388.444z   M66.488,355.156l-0.31,0.252l0.084,0.391c0.01,0.045,0.849,3.969,0.51,6.547l-0.017-0.015l-0.215,1.07  c-0.011,0.054-1.137,5.431-5.184,7.621c-2.28,1.235-5.094,1.23-8.358,0.013c0.056-4.039,1.421-10.643,1.436-10.718l0.074-0.354  l-0.262-0.25c-5.019-4.774-10.793-4.222-12.598-3.9c-0.32,0.057-0.549,0.134-0.701,0.203c-0.155,0.071-0.345,0.247-0.462,0.353  c-1.923,1.75-3.86,5.731-5.117,8.608c-0.07,0.159-0.323,0.771-0.599,1.439c-1.406-0.321-5.795-1.6-7.742-5.413  c-2.231-4.369-0.753-10.305,3.515-14.113l0.144-0.128l0.051-0.186c1.393-5.127,2.814-6.489,4.458-8.068  c0.23-0.221,0.464-0.445,0.702-0.683l0.15-0.15l0.033-0.21c0.374-2.395,1.282-3.649,1.896-4.483c0.086,0.05,0.173,0.102,0.279,0.15  c3.815,2.227,10.037,3.434,15.055,1.879c3.812-1.18,8.447-4.366,8.884-12.838c0.091-1.771-0.052-3.296-0.4-4.595  c1.96-0.82,8.246-4.164,9.096-13.636c0.225-2.504-0.377-4.38-1.787-5.574c-3.364-2.85-10.495-1.011-15.258,0.23  c0.157-1.696,0.826-5.531,3.684-7.646l0.286-0.213l-0.025-0.356c-0.014-0.21-0.288-5.148,5.114-6.781l0.396-0.122l0.06-0.408  c0.031-0.215,0.828-5.087,7.395-5.667c-0.112,1.806,0.417,4.422,3.092,5.09c0.811,0.203,1.744,0.267,2.732,0.333  c1.875,0.128,3.813,0.26,4.586,1.372c0.52,0.749,0.526,1.992,0.02,3.694c-1.809,6.075-3.326,6.556-3.28,6.559l-1.306,0.003  l0.79,1.043c0.086,0.114,2.093,2.841,0.203,7.001l-0.142,0.318l0.182,0.295c0.085,0.138,2.052,3.428-1.193,7.173l-0.223,0.258  l0.084,0.33c0.022,0.083,2.065,8.279-2.283,11.732l-0.303,0.241l0.067,0.381c0.023,0.128,2.166,12.785-3.957,18.998  c-0.46,0.467-0.962,0.891-1.489,1.26l-0.422,0.295l0.191,0.479C68.135,344.331,70.943,351.533,66.488,355.156z M78.144,364.44  c-1.007,0.14-7.241,0.898-10.235-1.192c0.561-2.395-0.062-6.131-0.297-7.343c4.138-3.711,2.471-9.88,1.875-11.651  c0.445-0.34,0.869-0.714,1.266-1.117c2.563-2.601,3.791-6.142,4.339-9.531c0.439,0.501,0.926,1.27,1.308,2.178  c0.824,1.885,1.196,4.207,1.656,5.028c0.431-2.09,0.1-4.622-0.795-6.43c-0.443-0.904-1.006-1.611-1.481-2.041  c-0.185-0.162-0.338-0.282-0.468-0.38c0.407-3.959-0.018-7.446-0.188-8.586c4.169-3.678,2.88-10.848,2.516-12.496  c0.388-0.476,0.702-0.947,0.959-1.41c0.542-0.587,4.048-4.692,5.11-13.593c0.514-4.309,2.883-8.202,6.498-10.681  c3.167-2.172,6.804-2.951,9.977-2.144c4.141,1.056,7.809,4.438,8.529,7.866c0.486,2.315-0.377,4.415-2.498,6.074  c-1.48,1.158-3.158,2.312-4.934,3.534c-5.927,4.079-12.647,8.702-12.874,14.62l-0.034,0.912c-0.264,7.163-0.664,17.989-6.556,22.523  c0,0,2.745-0.451,4.274-3.185c0.686,1.244,1.595,3.492,2.13,4.97C88.365,341.042,91.212,355.368,78.144,364.44z M79.455,365.107  c10.27-7.493,10.708-18.132,10.336-22.765c7.507,8.109,19.436,8.157,23.186,7.947c-0.221,0.441-0.462,0.877-0.676,1.319  c-3.123,6.447-5.582,12.781-7.535,18.925C89.769,372.128,81.632,366.816,79.455,365.107z M161.423,605.309  c-7.121,14.355-53.274,28.373-53.738,28.51c-5.03,1.491-45.402,10.524-56.801,2.973c-1.061-0.703-1.77-1.562-2.172-2.228  c-0.34-0.562-0.51-1.619-0.538-1.868c-1.351-11.93,16.636-21.649,22.182-24.343c0.269-0.131,0.44-0.387,0.459-0.685  c0.019-0.304-0.131-0.606-0.381-0.769c-0.242-0.157-0.542-0.171-0.801-0.036H69.63c-23.941,12.435-23.59,23.009-22.819,26.166  c-4.521-0.1-24.709-0.963-30.001-8.397c-0.749-1.052-1.273-2.177-1.238-3.4c0.024-0.835,0.337-2.786,0.516-3.299  c2.14-6.151,6.107-11.474,10.517-15.871c2.626-2.566,5.885-5.316,9.92-8.175c4.658-3.218,8.641-5.27,10.198-6.03  c0.271-0.133,0.441-0.395,0.457-0.701c0.015-0.312-0.142-0.617-0.398-0.775c-0.243-0.149-0.54-0.154-0.795-0.011  c-4.777,2.713-8.831,5.372-12.274,7.932c-1.071,0.79-2.163,1.636-3.257,2.538c-11.777,9.627-14.931,17.518-15.77,20.867  c-3.257-5.454-3.755-11.049-1.477-16.652c4.815-11.84,21.445-21.181,31.102-23.112c6.89-1.378,14.216-0.264,19.15,0.911  c7.169,1.709,13.817,5.8,18.72,11.519c9.721,11.34,17.637,24.827,18.134,25.68c0.409,0.92,3.157,2.655,18.452,2.038  c20.363-0.821,39.406-14.502,43.386-17.533C162.495,602.072,162.254,603.635,161.423,605.309z M141.096,535.346  c5.814,29.071,18.837,59.815,20.606,63.916c-2.904,2.256-22.269,16.693-42.989,17.529c-14.812,0.598-17-1.079-17.221-1.299  l-0.028-0.048c-0.081-0.14-8.225-14.166-18.298-25.917c-2.158-2.517-4.657-4.708-7.371-6.556c7.874-0.048,34.793-0.563,46.539-5.242  c0.148,2.19,1.514,3.447,1.514,3.447c-0.013-0.257-1.313-25.969-6.144-49.988l-0.347-1.727  c-4.704-23.375-10.508-52.217-14.574-85.274c3.389,6.956,12.055,20.99,29.979,30.658c-2.248,1.512-3.803,3.709-3.45,3.463  c0.121-0.084,0.852-0.524,1.637-1.015c1.135-0.71,3.133-1.742,6.169-2.587C136.793,480.009,135.489,507.308,141.096,535.346z   M153.83,472.11c-9.432-0.674-15.715,0.671-19.629,2.147c-24.128-12.889-31.822-34.21-31.979-34.684  c-0.148-0.532-11.122-41.219,11.25-87.399c11.61-23.964,33.247-46.127,57.88-59.286c1.031-0.551,1.979-1.049,2.852-1.509  c9.935-5.229,10.542-5.772,13.152-18.183c1.783,2.423,4.322,4.485,8.193,5.876c2.681,0.963,5.311,1.704,8.157,1.704  c0.02,0,0.041-0.001,0.062-0.001c-27.556,27.864-34.475,57.593-36.133,72.927c-0.986,9.125-1.076,25.781-1.17,43.416  c-0.064,11.969-0.131,24.344-0.505,34.078C165.012,455.826,155.358,470.014,153.83,472.11z M166.171,485.234  c-3.798-9.908-8.732-12.314-10.908-12.902c2.404-3.492,11.095-17.662,11.996-41.086c0.375-9.755,0.442-22.142,0.506-34.121  c0.095-17.601,0.184-34.225,1.163-43.283c1.653-15.29,9.043-45.438,36.891-73.219c2.528-0.331,5.26-1.29,8.362-3.197  c1.321-0.555,3.652-1.302,6.175-2.027c-10.976,8.217-16.557,19.032-17.594,21.186c-6.469,0.642-10.146,4.043-10.146,4.043  c0.1-0.051,10.068-5.053,16.676-1.445c3.297,1.801,5.247,5.49,5.794,10.964c0.982,9.819,1.134,18.723,1.255,25.878  c0.142,8.381,0.245,14.436,1.497,17.963c3.911,11.022,8.343,31.958,0.144,40.514c-8.27,8.63-26.293,12.442-30.505,13.234  c-1.375-2.42-2.795-4.491-4.136-6.446c-3.911-5.702-7.336-10.727-7.412-21.313c2.567-0.096,12.294-0.762,21.585-5.176  c-0.342,1.929,0.04,6.294,0.04,6.294c9.403-40.119-8.502-52.249-9.269-52.745c0,0,1.359,2.509,3.667,5.763  c-2.734,3.461-15.897,21.122-17.212,41.776c-0.883,13.877,3.015,19.559,7.528,26.137c1.302,1.898,2.679,3.908,4.014,6.247  c0.166,0.29,0.76,1.376,0.886,1.616c1.024,1.951,2.007,4.133,2.89,6.652c0.325,0.926,1.262,4.082,1.415,4.648  c3.46,12.814,2.845,20.752,2.248,28.439c-0.395,5.095-0.769,9.907,0.046,15.859c3.008,21.959,12.692,60.406,21.145,83.956  c8.411,23.432,11.938,24.008,25.058,26.153c0.77,0.126,1.573,0.257,2.412,0.399c3.371,0.57,8.109,0.791,13.437,0.791  c12.164,0,27.385-1.152,36.399-1.943c-10.615,4.521-18.601,15.592-26.024,25.892c-2.789,3.87-5.423,7.524-8.174,10.865  c-0.512,0.622-1.28,0.997-2.107,1.026c-7.933,0.277-35.626-0.288-59.037-19.408l-3.358-2.379  C185.353,541.172,169.963,495.125,166.171,485.234z M175.931,378.677c0.016-0.868,0.047-1.762,0.107-2.705  c1.254-19.707,13.535-36.682,16.678-40.726c3.978,6.206,8.3,17.973,5.068,37.985C188.511,377.889,178.536,378.578,175.931,378.677z   M341.155,622.854c-1.738,6.776-18.963,9.039-22.884,9.467c0.295-4.424-2.598-8.517-6.686-12.195  c-3.246-3.075-7.332-5.847-11.431-8.211c-0.828-0.518-1.629-1.041-2.431-1.508c-0.51-0.297-1.64-0.903-1.64-0.903  s-1.058-0.521-1.385,0.107c-0.327,0.627,0.366,1.019,0.621,1.15c1.352,0.698,2.736,1.445,4.119,2.24  c4.008,2.507,8.35,5.366,11.713,8.481c2.882,2.821,4.973,5.875,5.576,9.059c0.129,0.678,0.182,1.362,0.176,2.052  c-0.008,0.953-0.261,1.683-0.362,1.923c-0.357,0.844-0.987,1.569-1.9,2.192c-7.509,5.131-32.276,1.889-64.636-8.459  c-34.967-11.182-50.794-26.504-54.812-30.934c-0.513-0.565-0.847-1.272-0.967-2.044c-0.136-0.877-0.274-1.756-0.415-2.631  l2.279,1.613c23.727,19.38,51.822,19.954,59.87,19.673c1.2-0.042,2.317-0.588,3.066-1.498c2.777-3.374,5.423-7.045,8.224-10.932  c9.156-12.703,18.529-25.695,32.151-27.324c0.237-0.024,0.405-0.041,0.484-0.049l0-0.003c6.189-0.613,13.25,1.107,21.559,6.247  c11.793,7.295,18.702,15.035,20.535,23.005c1.013,4.405,0.137,7.793-0.55,9.546c-4.169-10.131-17.97-20.425-24.025-24.94  c-0.761-0.568-2.227-1.662-2.227-1.662s-0.672-0.51-1.09-0.022c-0.429,0.5,0.063,0.999,0.3,1.197  c0.794,0.664,2.366,1.721,3.338,2.448c13.425,10.051,19.661,17.354,22.256,22.898c0.292,0.653,0.554,1.302,0.748,1.954  c0.222,0.744,0.692,2.462,0.762,3.01C341.737,619.722,341.532,621.38,341.155,622.854z"></path>
<path id="_x23_ED917C" fill="#ED917C" d="M235.545,240.199c-2.527,2.772-5.122,6.28-7.787,9.892  c-6.073,8.228-12.352,16.737-18.355,17.295c-11.4,1.063-18.691,0.827-23.337-16.228h12.646c0.87,0,1.58-0.689,1.604-1.559  c0.047-1.674,0.157-4.498,0.41-7.488c4.426-2.81,8.507-1.677,10.226-0.957c-2.999,2.511-6.767,8.047-6.479,10.926  c3.944-8,8.027-11.72,13.796-13.559C225.837,236.107,233.247,239.111,235.545,240.199z M223.087,132.687  c0.422,0.979,1.336,1.179,1.991,1.049c0.654-0.128,1.426-0.657,1.448-1.726c0.252-12.509,0.433-34.917-1.191-44.445  c-2.763-16.21-4.629-42.468-3.305-57.312c-3.788,7.198-13.037,26.639-12.545,44.015c0.638,22.56,2.351,31.786,8.729,47.01  C219.568,124.508,221.406,128.793,223.087,132.687z M274.689,27.074c-5.214,14.828-11.246,62.337-12.362,83.343  c-0.496,9.338-2.341,18.936-5.483,28.527c-0.49,1.494-1.813,1.931-2.793,1.861c-0.988-0.076-2.234-0.719-2.49-2.28l-0.415-2.503  c-2.392-14.323-6.007-35.967-0.283-63.903C256.08,46.655,269.525,31.938,274.689,27.074z"></path>
<path id="_x23_A2A8AD" fill="#A2A8AD" d="M178.941,200.259c-0.058-0.259-0.116-0.509-0.174-0.784  c0.071-0.387,0.616-2.45,4.361-4.266l0.328-0.159l0.035-0.364c0.01-0.1,1.073-10.092,10.166-16.383l6.209-3.907  c0.129-0.081,0.245-0.028,0.288-0.001c0.052,0.032,0.137,0.108,0.12,0.25c-0.479,4.233-2.025,14.406-6.309,22.496  C192.132,197.28,183.337,198.052,178.941,200.259z M243.313,155.295c-1.732-9.489-5.783-14.827-9.155-17.719  c2.768,4.485,4.236,10.203,4.475,11.186c1.446,1.631,2.701,3.462,3.617,5.533l-0.013,0.006  C242.614,154.592,242.974,154.923,243.313,155.295z M224.61,399.375c-1.147-1.061-3.817-0.442-7.718,1.787  c-8.468,4.839-22.949,6.686-24.588,6.882c-1.751,0.417-3.192,0.712-4.166,0.897c1.319,2.468,2.578,5.3,3.663,8.718  c0.031-0.055,0.055-0.097,0.088-0.155c0.559-0.905,1.424-2.148,2.648-3.404c2.368-2.553,6.593-4.861,10.444-4.749  c-0.738,0.285-2.113,0.717-3.661,1.463c-1.543,0.751-3.231,1.839-4.638,3.119c-1.412,1.273-2.554,2.692-3.31,3.797  c-0.391,0.544-0.647,1.036-0.859,1.357c-0.083,0.134-0.141,0.227-0.192,0.311c3.747,13.113,3.381,21.302,2.8,28.981  c19.919-1.269,25.27-16.837,26.268-20.583h-4.798l0.435-0.927C226.369,406.983,226.307,400.941,224.61,399.375z M239.55,195.433  c2.306-12.939-2.288-27.104-4.202-32.198c-0.113-0.302-0.355-0.528-0.664-0.62c-0.307-0.09-0.628-0.035-0.884,0.152  c-7.025,5.141-12.042,12.954-18.509,28.827c-1.485,3.646-2.286,6.931-2.44,9.786C223.461,194.56,236.557,195.184,239.55,195.433z   M221.78,139.866c4.25,3.23,8.43,7.654,8.997,8.26c2.151,0.888,4.364,2.372,6.319,4.798c1.101-0.163,2.163-0.056,3.156,0.293  C236.019,145.688,227.062,141.665,221.78,139.866z M233.711,154.243c0.666-0.424,1.329-0.743,1.985-0.971  c-3.651-4.205-8.172-5.067-11.185-5.083C228.778,149.896,232.828,153.443,233.711,154.243z M295.412,8.451  c-3.944,8.733-9.252,21.914-9.812,35.499c-0.191,4.62-0.107,12.133-0.01,20.832c0.182,16.327,0.408,36.645-1.233,45.127  c-2.447,12.643-4.977,25.717-29.137,56.16c0,0,2.37-0.904,3.023-1.742c1.24,0.812,4.666,3.726,4.501,11.121l-0.037,1.576  c-0.221,9.162-0.604,25.264,3.061,33.702c-3.685-1.393-13.498-4.18-29.976-2.596c10.796-15.167,3.371-38.435,0.772-45.352  c-0.258-0.687-0.808-1.2-1.51-1.409c-0.699-0.209-1.435-0.08-2.023,0.349c-7.242,5.299-12.377,13.263-18.945,29.386  c-2.834,6.957-3.359,12.572-1.56,16.689c0.777,1.778,1.847,2.918,2.729,3.62c-16.575,2.597-20.716,0.866-24.124-0.567  c-0.855-0.359-1.663-0.699-2.614-0.954c-0.842-0.226-1.62-0.379-2.343-0.521c-0.878-0.172-1.659-0.328-2.366-0.59  c13.433-4.909,16.978-27.097,17.757-33.989c0.069-0.601-0.208-1.175-0.721-1.497c-0.515-0.325-1.157-0.324-1.672,0.001l-4.598,2.894  c1.546-3.96,5.608-13.234,10.102-14.347c1.266-0.314,2.455,0.081,3.641,1.203l0.408,0.386l0.441-0.347  c0.088-0.069,8.725-6.7,22.368-7.087c-0.677,0.664-1.348,1.434-2.006,2.326c0.955-0.911,1.867-1.665,2.737-2.278  c0.035-0.025,0.592-0.39,0.616-0.405c8.436-5.406,12.708,2.981,13.299,12.938c0.159,1.38,0.216,2.769,0.28,4.168  c0.419-2.772,0.463-5.598,0.178-8.412c-0.169-2.52-0.744-4.705-1.613-6.476c-1.812-14.573-8.76-20.824-12.746-23.254  c-0.345-0.209-0.782-0.135-1.039,0.174c-0.257,0.309-0.247,0.752,0.022,1.052c2.727,3.037,4.561,8.043,5.47,10.99  c-6.69-6.138-15.975-8.726-18.272-9.293c-0.356-0.085-0.705,0.094-0.838,0.43l-0.177,0.614l0.494,0.279  c3.524,1.993,7.848,6.08,10.207,8.441c-2.934-0.649-5.452-0.362-6.584-0.161c-0.377,0.066-0.649,0.39-0.648,0.77  c0.001,0.385,0.279,0.713,0.663,0.779c4.09,0.695,8.82,4.437,10.643,5.993c-3.436,0.041-6.558,0.459-9.334,1.082  c-1.01-3.292-5.299-16.899-11.574-31.622c-5.412-12.697-13.279-38.833-5.17-71.217c7.939-31.705,21.212-46.029,25.091-49.664  c0.364-0.342,0.844-0.297,1.145-0.156c0.155,0.074,0.513,0.295,0.481,0.764c-2.905,43.395,7.899,134.739,8.008,135.656l0.018,0.151  l4.109,6.293c0.352,0.538,0.542,1.169,0.539,1.812c-0.005,1.214-0.028,2.294-0.058,3.201c-0.061,1.875-0.362,2.592,0.392,2.75  c0.73,0.153,0.84-0.712,0.902-2.506c0.164-4.707,0.175-14.363-1.836-23.21c-4.101-18.045-4.464-34.913-1.111-51.57  c4.433-22.022,33.091-73.575,50.795-75.13c0.694-0.052,1.321,0.356,1.557,1.009C296.584,3.441,296.781,5.42,295.412,8.451z   M226.617,87.347c-2.891-16.962-4.798-44.956-3.065-59.143c0.045-0.365,0.056-1.759,0.229-2.832c0.261-1.62-1.533,1.753-1.912,2.439  c-2.819,5.1-14.236,27.024-13.684,46.494c0.636,22.49,2.452,32.252,8.83,47.476c1.354,3.233,3.193,7.522,4.878,11.421  c0.573,1.326,1.743,1.868,2.825,1.868c0.208,0,0.413-0.02,0.61-0.058c1.218-0.239,2.464-1.252,2.498-2.975  C228.08,119.481,228.26,96.98,226.617,87.347z M196.816,197.764c3.077-0.21,5.719,0.029,8.78-0.457  C202.915,195.993,199.23,195.815,196.816,197.764z M206.872,202.045c-4.073-2.441-9.506-1.475-13.544,0.592  C197.88,202.344,202.314,201.383,206.872,202.045z M203.427,165.201c-1.727,1.036-2.879,2.687-3.789,4.407  c1.464-1.137,2.729-2.506,4.342-3.307c2.659-1.443,2.428,4.892,2.765,6.443C207.736,170.166,207.904,163.111,203.427,165.201z   M275.068,24.976c-3.925,3.426-19.699,18.675-25.479,46.881c-5.773,28.173-2.135,49.961,0.274,64.378l0.415,2.5  c0.354,2.157,2.1,3.245,3.673,3.366c0.101,0.008,0.203,0.011,0.307,0.011c1.498,0,3.188-0.829,3.822-2.764  c3.178-9.7,5.045-19.411,5.547-28.863c1.29-24.295,7.914-73.014,12.923-84.62c0.13-0.3,0.659-1.987,1.394-3.309  C278.434,21.675,275.618,24.495,275.068,24.976z M137.119,474.706c-3.036,0.846-5.034,1.878-6.169,2.587  c-0.785,0.491-1.516,0.93-1.637,1.015c-0.353,0.246,1.202-1.951,3.45-3.463c-17.925-9.668-26.59-23.702-29.979-30.658  c4.066,33.056,9.87,61.899,14.574,85.274l0.347,1.727c4.831,24.019,6.131,49.73,6.144,49.988c0,0-1.366-1.257-1.514-3.447  c-11.746,4.679-38.665,5.193-46.539,5.242c2.715,1.849,5.213,4.039,7.371,6.556c10.073,11.751,18.217,25.776,18.298,25.917  l0.028,0.048c0.221,0.22,2.409,1.897,17.221,1.299c20.719-0.835,40.085-15.273,42.989-17.529  c-1.769-4.101-14.792-34.846-20.606-63.916C135.489,507.308,136.793,480.009,137.119,474.706z M104.766,370.532  c1.953-6.144,4.412-12.478,7.535-18.925c0.214-0.442,0.456-0.878,0.676-1.319c-3.75,0.21-15.678,0.162-23.186-7.947  c0.372,4.634-0.066,15.272-10.336,22.765C81.632,366.816,89.769,372.128,104.766,370.532z M242.382,575.996  c-0.84-0.142-1.642-0.273-2.412-0.399c-13.12-2.145-16.647-2.721-25.058-26.153c-8.453-23.55-18.137-61.997-21.145-83.956  c-0.815-5.952-0.441-10.764-0.046-15.859c0.597-7.687,1.213-15.626-2.248-28.439c-0.153-0.566-1.09-3.722-1.415-4.648  c-0.884-2.519-1.866-4.7-2.89-6.652c-0.126-0.239-0.72-1.326-0.886-1.616c-1.335-2.339-2.712-4.349-4.014-6.247  c-4.513-6.578-8.411-12.26-7.528-26.137c1.314-20.653,14.478-38.314,17.212-41.776c-2.308-3.254-3.667-5.763-3.667-5.763  c0.767,0.497,18.671,12.626,9.269,52.745c0,0-0.383-4.364-0.04-6.294c-9.291,4.414-19.019,5.08-21.585,5.176  c0.076,10.586,3.5,15.611,7.412,21.313c1.341,1.955,2.761,4.025,4.136,6.446c4.213-0.792,22.235-4.604,30.505-13.234  c8.199-8.555,3.767-29.492-0.144-40.514c-1.252-3.527-1.355-9.582-1.497-17.963c-0.121-7.154-0.273-16.059-1.255-25.878  c-0.547-5.475-2.497-9.164-5.794-10.964c-6.608-3.608-16.576,1.393-16.676,1.445c0,0,3.677-3.401,10.146-4.043  c1.037-2.154,6.618-12.969,17.594-21.186c-2.523,0.724-4.854,1.472-6.175,2.027c-3.102,1.907-5.834,2.866-8.362,3.197  c-27.848,27.781-35.238,57.929-36.891,73.219c-0.979,9.058-1.068,25.683-1.163,43.283c-0.064,11.979-0.131,24.366-0.506,34.121  c-0.901,23.424-9.592,37.594-11.996,41.086c2.176,0.588,7.11,2.993,10.908,12.902c3.792,9.891,19.182,55.938,27.348,105.605  l3.358,2.379c23.411,19.12,51.104,19.685,59.037,19.408c0.827-0.029,1.595-0.403,2.107-1.026c2.751-3.341,5.385-6.996,8.174-10.865  c7.423-10.299,15.409-21.371,26.024-25.892c-9.014,0.79-24.236,1.943-36.399,1.943C250.491,576.786,245.754,576.565,242.382,575.996  z M171.139,291.529c-3.461-0.464-10.916-1.085-16.189,1.175c-6.737,2.887-15.347,15.689-18.167,24.687  c9.993-10.2,21.6-19.049,33.955-25.649C170.878,291.667,171.003,291.601,171.139,291.529z"></path>
<path id="_x23_F2F2F3" fill="#F2F2F3" d="M179.254,201.573c1.097-0.604,2.573-1.103,4.193-1.512c0.543,1.05,2.105,3.244,5.739,3.71  c-1.954,1.927-4.238,3.389-6.908,4.13C181.102,206.906,180.148,205.097,179.254,201.573z M185.323,224.49  c0.036-0.107,0.061-0.179,0.094-0.275c-1.97,0.351-5.94,0.714-8.385-1.424c-0.043-0.038-0.079-0.082-0.121-0.121l-0.24,4.363  c0.205,0.773,0.397,1.855,0.637,3.22c0.979,5.569,2.609,14.851,8.145,19.604h12.429c0.618,0,1.125-0.482,1.144-1.1  c0.131-4.197,0.705-14.966,3.185-22.587c-0.451,0.319-0.932,0.618-1.484,0.858c-3.592,1.566-8.282,0.632-13.935-2.728  c-0.079,0.233-0.17,0.499-0.227,0.854c-0.253,1.007-0.422,2.488-0.469,4.228c-0.089,3.49,0.481,7.992,1.102,11.932  c-0.901-1.419-2.184-5.893-2.425-10.146c-0.139-2.12,0.008-4.172,0.319-5.666C185.176,225.129,185.254,224.789,185.323,224.49z   M146.089,219.664c-0.176,0.071-1.345,0.554-2.342,1.226c1.052-4.476,6.535-14.652,33.867-20.611  c1.325,6.045,2.836,8.312,5.019,9.393c-0.217,1.65-0.714,6.723,1.061,8.579c0.459,0.479,1.044,0.728,1.705,0.728  c0.1,0,0.203-0.006,0.306-0.017c3.452-0.384,6.878-4.535,7.869-5.828c1.781,0.521,4.099,0.918,7.631,0.918  c4.821,0,11.896-0.737,22.927-2.894c27.09-5.299,41.078,0.677,42.567,1.368c0.251,0.416,0.506,0.823,0.787,1.177  c2.03,2.557,4.505,4.01,6.897,5.416c4.079,2.396,7.945,4.667,9.261,12.3c-1.642-1.42-3.564-1.42-3.564-1.42l0.51,0.956  c0.033,0.062,2.757,5.236,3.231,10.975c-0.985-2.042-3.668-3.761-3.668-3.761l0.486,1.844c0.012,0.047,0.858,3.387-0.078,7.318  c-4.758-3.134-15.578-7.136-27.968-11.099c4.954-0.105,7.73-2.036,7.73-2.036c-0.109,0.024-4.693,1.01-11.987,0.694  c-15.252-3.196-22.984-6.781-32.68-9.399c-2.684-1.48-5.409-3.189-8.154-5.145c15.991,1.73,42.732,4.864,58.535,8.031  c4.336,0.869,6.138,1.278,8.28,1.801c2.506,0.611-3.489-2.163-7.776-3.032c-16.688-3.384-45.452-6.678-61.171-8.345l-0.239-0.025  c-3.481-0.369-6.305-0.656-8.192-0.845c-1.375-0.138-2.261-0.206-2.371,0.385c-0.107,0.574,0.658,0.752,2.153,0.902  c1.844,0.186,4.651,0.473,8.13,0.844c-0.14,0.488-0.44,1.36-0.976,2.308c-2.698-0.701-4.865-1.255-6.326-1.625  c-1.07-0.271-2.111-0.427-2.267,0.119c-0.15,0.524,0.69,0.823,1.869,1.123c1.365,0.348,3.405,0.871,5.958,1.536  c-0.703,0.907-1.647,1.768-2.914,2.317c-3.327,1.442-7.844,0.412-13.427-3.061l-0.242-0.15l-0.275,0.076  c-0.054,0.015-5.618,1.51-8.367-0.896c-0.716-0.627-1.175-1.49-1.395-2.566c0.437-0.032,0.843-0.062,1.215-0.089  c1.54-0.111,2.467-0.078,2.457-0.718c-0.01-0.648-1.109-0.684-2.528-0.583c-0.395,0.028-0.829,0.06-1.296,0.094  c-0.014-0.536,0.022-1.117,0.102-1.734c0.624,0.083,1.184,0.159,1.668,0.225c1.219,0.168,1.917,0.231,2.019-0.267  c0.103-0.501-0.679-0.862-1.779-1.015c-2.605-0.362-7.457-1.001-12.514-1.488c-0.369-0.047-0.968-0.091-0.968-0.091  c-3.18-0.292-6.39-0.513-9.128-0.557c-1.713-0.028-4.152,0.43-5.382,0.899c-0.575,0.219,3.683,0.376,5.33,0.403  c2.739,0.045,5.991,0.274,9.215,0.573c0.422,0.039,0.83,0.157,1.219,0.325c0.004,0.002,0.008,0.004,0.013,0.005  c0.485,0.209,0.907,0.528,1.259,0.921c0.49,0.547,1.216,1.369,2.039,2.34c-5.613,0.466-12.273,1.092-16.99,1.768  c-1.759,0.252-5.444,1.702-4.331,1.657c1.306-0.052,2.697-0.105,4.336-0.342c4.916-0.711,12.15-1.378,18.006-1.858  c2.108,2.575,4.421,5.694,4.938,7.556c0.199,0.717,0.403,1.872,0.637,3.209c1.011,5.751,2.701,15.333,8.612,20.383  c3.948,15.049,9.92,18.172,18.729,18.171c1.915,0,3.964-0.147,6.155-0.351c6.583-0.613,13.038-9.359,19.281-17.818  c5.522-7.483,10.736-14.548,15.233-14.985c0.064,0.001,0.127,0.001,0.191,0.002c0.421,0.043,0.833,0.081,1.242,0.115  c3.12,0.847,4.321,5.421,4.334,5.475c0,0,0.034-3.74-1.424-5.181c12.481,3.883,23.837,7.873,29.693,11.071l-0.74,0.836  c-8.773,9.901-21.437,13.639-33.685,17.256c-7.537,2.225-14.655,4.345-20.146,7.788c-1.264,0.333-3.53,0.964-5.762,1.692  c4.704-3.562,8.166-7.393,10.556-10.543c2.964-3.905,3.086-4.3,3.96-6.068c0.416-0.842-3.288,3.697-4.947,5.573  c-15.607,17.644-22.969,16.956-31.32,13.956c-8.41-3.022-10.049-9.3-11.785-15.947c-0.555-2.125-1.129-4.323-1.937-6.404  c0,0,0.133,4.643,0.678,6.733c0.097,0.371,0.194,0.743,0.293,1.114c-2.31-2.36-6.612-6.421-11.842-9.763  c-7.231-4.62-18.158-11.603-19.959-25.18l-0.218-1.646l-0.958,1.357c-0.051,0.073-1.085,1.56-1.622,3.971  c-0.499-1.604-0.913-4.091-0.409-7.4l0.222-1.456l-1.225,0.817c-0.055,0.036-0.993,0.671-1.741,1.755  c-0.03-1.567,0.222-3.553,1.375-5.154l1.315-1.826L146.089,219.664z M194.355,216.103c0.005,0.593,0.876,0.629,2.286,0.627  c8.708-0.012,40.293,0.036,60.692,1.152c5.246,0.287,7.132,0.206,9.354,0.227c3.188,0.03-4.166-1.248-9.581-1.54  c-20.402-1.1-51.583-1.15-60.378-1.139C195.262,215.431,194.351,215.486,194.355,216.103z M164.328,208.721  c5.492,1.506,11.401,3.9,14.102,5.042c0.927,0.392,1.501,0.53,1.715,0.157c0.215-0.374-0.229-0.94-1.116-1.316  c-2.674-1.133-8.657-3.563-14.262-5.111c-1.41-0.389-3.331-0.77-4.638-0.727C159.063,206.8,162.985,208.352,164.328,208.721z   M214.145,448.357c1.437-0.549,8.785-3.705,12.254-11.865c2.901-6.823,2.387-15.304-1.514-25.224  c-1.26,3.818-3.242,8.765-6.248,15.227h4.37l-0.156,0.778c-0.042,0.212-4.486,21.025-27.831,22.414  c-0.001,0.014-0.002,0.028-0.003,0.042c-0.198,2.549-0.389,5.027-0.426,7.609c3.089,0.555,19.338,2.894,27.333-7.471  c-1.713,0.135-4.619,0.257-7.598-0.099l-0.506-0.061l-0.138-0.582C213.642,448.792,213.832,448.476,214.145,448.357z   M217.168,211.103c2.057-0.344,4.282-0.746,6.712-1.222c3.62-0.708,7.004-1.22,10.158-1.573c1.837-2.344,3.183-4.92,4.14-7.622  c-2.776,1.449-5.188,1.997-7.237,1.997c-4.854,0-7.68-3.026-8.565-4.155c-3.225,0.952-6.522,2.361-9.543,4.429  c0.059,1.59,0.333,3.031,0.868,4.271C214.829,209.844,216.644,210.856,217.168,211.103z M118.766,618.09  c-15.295,0.617-18.043-1.118-18.452-2.038c-0.497-0.852-8.413-14.339-18.134-25.68c-4.903-5.718-11.551-9.81-18.72-11.519  c-4.933-1.175-12.26-2.288-19.15-0.911c-9.656,1.931-26.287,11.272-31.102,23.112c-2.278,5.603-1.78,11.198,1.477,16.652  c0.84-3.349,3.993-11.24,15.77-20.867c1.095-0.902,2.187-1.748,3.257-2.538c3.443-2.561,7.497-5.22,12.274-7.932  c0.255-0.144,0.551-0.138,0.795,0.011c0.257,0.158,0.413,0.462,0.398,0.775c-0.015,0.306-0.185,0.568-0.457,0.701  c-1.557,0.76-5.539,2.812-10.198,6.03c-4.035,2.859-7.294,5.609-9.92,8.175c-4.41,4.397-8.377,9.72-10.517,15.871  c-0.178,0.514-0.492,2.465-0.516,3.299c-0.035,1.223,0.489,2.348,1.238,3.4c5.292,7.434,25.48,8.298,30.001,8.397  c-0.772-3.157-1.122-13.731,22.819-26.166h0.001c0.26-0.135,0.56-0.121,0.801,0.036c0.25,0.163,0.4,0.465,0.381,0.769  c-0.018,0.298-0.19,0.555-0.459,0.685c-5.545,2.695-23.532,12.414-22.182,24.343c0.028,0.248,0.198,1.306,0.538,1.868  c0.402,0.666,1.111,1.525,2.172,2.228c11.399,7.551,51.771-1.482,56.801-2.973c0.464-0.137,46.617-14.156,53.738-28.51  c0.831-1.674,1.072-3.237,0.728-4.751C158.172,603.588,139.128,617.269,118.766,618.09z M203.707,280.777  c-2.847,0-5.476-0.741-8.157-1.704c-3.871-1.391-6.41-3.453-8.193-5.876c-2.61,12.41-3.217,12.954-13.152,18.183  c-0.873,0.46-1.821,0.958-2.852,1.509c-24.633,13.159-46.27,35.322-57.88,59.286c-22.371,46.18-11.398,86.868-11.25,87.399  c0.157,0.474,7.85,21.794,31.979,34.684c3.914-1.476,10.196-2.822,19.629-2.147c1.528-2.096,11.183-16.285,12.13-40.913  c0.374-9.734,0.441-22.11,0.505-34.078c0.095-17.635,0.184-34.291,1.17-43.416c1.658-15.334,8.576-45.063,36.133-72.927  C203.748,280.776,203.727,280.777,203.707,280.777z M69.486,344.255c0.445-0.34,0.869-0.714,1.266-1.117  c2.563-2.601,3.791-6.142,4.339-9.531c0.439,0.501,0.926,1.27,1.308,2.178c0.824,1.885,1.196,4.207,1.656,5.028  c0.431-2.09,0.1-4.622-0.795-6.43c-0.443-0.904-1.006-1.611-1.481-2.041c-0.185-0.162-0.338-0.282-0.468-0.38  c0.407-3.959-0.018-7.446-0.188-8.586c4.169-3.678,2.88-10.848,2.516-12.496c0.388-0.476,0.702-0.947,0.959-1.41  c0.542-0.587,4.048-4.692,5.11-13.593c0.514-4.309,2.883-8.202,6.498-10.681c3.167-2.172,6.804-2.951,9.977-2.144  c4.141,1.056,7.809,4.438,8.529,7.866c0.486,2.315-0.377,4.415-2.498,6.074c-1.48,1.158-3.158,2.312-4.934,3.534  c-5.927,4.079-12.647,8.702-12.874,14.62l-0.034,0.912c-0.264,7.163-0.664,17.989-6.556,22.523c0,0,2.745-0.451,4.274-3.185  c0.686,1.244,1.595,3.492,2.13,4.97c0.144,0.676,2.992,15.002-10.077,24.074c-1.007,0.14-7.241,0.898-10.235-1.192  c0.561-2.395-0.062-6.131-0.297-7.343C71.75,352.195,70.082,346.026,69.486,344.255z M70.286,360.462  c4.835-0.154,7.86-5.601,7.064-10.034C76.152,354.651,74.307,358.453,70.286,360.462z M340.729,614.792  c-0.194-0.652-0.456-1.301-0.748-1.954c-2.596-5.544-8.831-12.847-22.256-22.898c-0.972-0.727-2.544-1.785-3.338-2.448  c-0.237-0.198-0.728-0.697-0.3-1.197c0.418-0.488,1.09,0.022,1.09,0.022s1.466,1.094,2.227,1.662  c6.055,4.516,19.856,14.809,24.025,24.94c0.687-1.754,1.563-5.141,0.55-9.546c-1.834-7.971-8.743-15.711-20.535-23.005  c-8.309-5.14-15.37-6.86-21.559-6.247l0,0.003c-0.079,0.008-0.247,0.025-0.484,0.049c-13.621,1.629-22.994,14.62-32.151,27.324  c-2.801,3.887-5.447,7.558-8.224,10.932c-0.749,0.91-1.866,1.456-3.066,1.498c-8.048,0.281-36.143-0.293-59.87-19.673l-2.279-1.613  c0.141,0.875,0.279,1.754,0.415,2.631c0.119,0.772,0.454,1.479,0.967,2.044c4.018,4.43,19.844,19.752,54.812,30.934  c32.36,10.348,57.127,13.59,64.636,8.459c0.913-0.624,1.542-1.348,1.9-2.192c0.102-0.24,0.354-0.97,0.362-1.923  c0.006-0.689-0.048-1.374-0.176-2.052c-0.604-3.185-2.694-6.238-5.576-9.059c-3.363-3.115-7.706-5.974-11.713-8.481  c-1.383-0.794-2.767-1.542-4.119-2.24c-0.255-0.131-0.948-0.523-0.621-1.15c0.327-0.628,1.385-0.107,1.385-0.107  s1.129,0.606,1.64,0.903c0.802,0.467,1.603,0.99,2.431,1.508c4.098,2.364,8.185,5.137,11.431,8.211  c4.088,3.678,6.981,7.771,6.686,12.195c3.921-0.429,21.146-2.692,22.884-9.467c0.378-1.474,0.582-3.132,0.336-5.052  C341.421,617.253,340.95,615.535,340.729,614.792z M32.344,305.389c-2.408,4.214-0.762,7.47-0.213,8.353  c2.717-0.074,5.244,1.308,6.472,2.32c0.48,0.29,3.171-0.6,5.135-1.253c5.004-1.664,11.855-3.941,15.706-1.013  c0.835,0.636,1.473,1.498,1.932,2.559c1.793-0.734,7.429-3.72,8.219-12.531c0.187-2.086-0.248-3.547-1.332-4.464  c-2.868-2.432-9.673-0.656-14.174,0.518c-1.238,0.323-2.309,0.602-3.104,0.742c-1.223,0.216-2.801,0.302-4.628,0.402  C41.339,301.296,34.468,301.672,32.344,305.389z M52.925,333.767c3.416-1.058,7.572-3.94,7.969-11.663  c0.183-3.557-0.57-6.004-2.239-7.273c-3.305-2.516-9.779-0.362-14.508,1.212c-3.662,1.217-5.464,1.77-6.372,1.023  c-1.303-1.074-4.265-2.663-7.1-1.814c-2.441,0.732-4.299,3.113-5.523,7.078c-3.261,10.57,5.406,18.61,5.772,18.943  c0.121,0.082,0.21,0.154,0.299,0.215c0.982-1.913,2.007-2.9,3.07-3.92c0.177-0.17,0.355-0.34,0.535-0.518  c0.448-2.604,1.455-3.967,2.127-4.878c0.008-0.011,0.012-0.018,0.02-0.029c-0.4-0.694-0.361-2.037-0.361-2.037  C38.781,332.943,46.582,335.73,52.925,333.767z M34.274,301.936c3.267-1.726,7.988-1.993,12.012-2.213  c1.374-0.075,2.599-0.143,3.615-0.262c-15.616-33.05-33.914-33.273-43.478-30.424l-0.242,0.072  c-1.587,0.463-4.643,2.442-4.866,5.128c-0.231,2.789,2.643,5.706,8.31,8.434C23.11,289.164,32.44,299.754,34.274,301.936z"></path>
<path id="_x23_B7533E" fill="#B7533E" d="M241.124,235.492c-1.52,0.805-3.067,2.096-4.641,3.712  c-1.941-0.987-10.037-4.65-18.597-1.926c-2.072,0.659-3.992,1.67-5.78,2.973c-1.329-0.665-6.003-2.576-11.235,0.258  c0.541-5.536,1.582-12.169,3.581-16.595c0.008-0.012,0.015-0.024,0.023-0.036c3.055,0.799,6.724,1.771,10.78,2.869  C226.517,230.962,235.545,233.141,241.124,235.492z M172.023,219.586c1.278,1.599,2.571,3.348,3.486,4.899l0.191-3.462  c-0.241-0.507-0.412-1.07-0.522-1.681C174.219,219.414,173.155,219.496,172.023,219.586z M205.971,220.863  c-0.162,0.496-0.426,1.148-0.792,1.846c1.764,0.46,3.717,0.974,5.826,1.535C209.335,223.198,207.658,222.093,205.971,220.863z   M188.182,211.147c-0.811-0.217-1.561-0.365-2.257-0.501c-0.737-0.145-1.411-0.293-2.039-0.485c-0.293,2.469-0.321,6.073,0.748,7.19  c0.249,0.259,0.549,0.36,0.927,0.318c2.667-0.296,5.534-3.524,6.697-4.971c-0.582-0.215-1.115-0.438-1.63-0.654  C189.814,211.703,189.046,211.379,188.182,211.147z M175.074,216.737c-1.139,0.075-3.333,0.095-5.847-0.484  c0.525,0.598,1.14,1.313,1.796,2.104c1.462-0.118,2.821-0.223,4.026-0.313C175.035,217.625,175.038,217.194,175.074,216.737z"></path>
<path id="_x23_FCB032" fill="#FCB032" d="M68.105,344.258l-0.191-0.479l0.422-0.295c0.528-0.369,1.029-0.793,1.489-1.26  c6.122-6.213,3.98-18.871,3.957-18.998l-0.067-0.381l0.303-0.241c4.349-3.453,2.305-11.649,2.283-11.732l-0.084-0.33l0.223-0.258  c3.245-3.745,1.278-7.035,1.193-7.173l-0.182-0.295l0.142-0.318c1.891-4.159-0.116-6.886-0.203-7.001l-0.79-1.043l1.306-0.003  c-0.046-0.003,1.471-0.484,3.28-6.559c0.506-1.702,0.499-2.944-0.02-3.694c-0.773-1.113-2.711-1.245-4.586-1.372  c-0.988-0.067-1.921-0.13-2.732-0.333c-2.675-0.668-3.203-3.284-3.092-5.09c-6.568,0.581-7.364,5.452-7.395,5.667l-0.06,0.408  l-0.396,0.122c-5.402,1.633-5.128,6.571-5.114,6.781l0.025,0.356l-0.286,0.213c-2.858,2.115-3.527,5.95-3.684,7.646  c4.762-1.241,11.893-3.08,15.258-0.23c1.411,1.194,2.012,3.069,1.787,5.574c-0.85,9.472-7.136,12.817-9.096,13.636  c0.348,1.299,0.49,2.823,0.4,4.595c-0.436,8.472-5.072,11.658-8.884,12.838c-5.018,1.555-11.24,0.348-15.055-1.879  c-0.105-0.048-0.193-0.1-0.279-0.15c-0.615,0.833-1.522,2.088-1.896,4.483l-0.033,0.21l-0.15,0.15  c-0.238,0.238-0.472,0.462-0.702,0.683c-1.645,1.579-3.065,2.942-4.458,8.068l-0.051,0.186l-0.144,0.128  c-4.268,3.809-5.746,9.744-3.515,14.113c1.947,3.813,6.336,5.093,7.742,5.413c0.275-0.669,0.529-1.28,0.599-1.439  c1.256-2.878,3.194-6.858,5.117-8.608c0.116-0.106,0.307-0.282,0.462-0.353c0.152-0.069,0.381-0.146,0.701-0.203  c1.805-0.322,7.579-0.875,12.598,3.9l0.262,0.25l-0.074,0.354c-0.015,0.075-1.381,6.68-1.436,10.718  c3.264,1.217,6.077,1.222,8.358-0.013c4.047-2.19,5.173-7.567,5.184-7.621l0.215-1.07l0.017,0.015c0.339-2.578-0.5-6.502-0.51-6.547  l-0.084-0.391l0.31-0.252C70.943,351.533,68.135,344.331,68.105,344.258z M57.421,357.396c-0.023,0.019-0.062,0.019-0.099-0.017  c-0.384-0.359-1.055-1.057-1.834-1.767c-0.852-0.649-1.736-1.373-2.569-1.819c-0.297-0.176-0.561-0.371-0.853-0.508  c-0.295-0.131-0.584-0.259-0.873-0.387c-0.557-0.287-1.168-0.467-1.822-0.685c-1.313-0.409-2.883-0.851-5.26-1.018  c-1.957-0.129-3.542-0.24-4.795-0.385c-1.25-0.138-2.164-0.288-2.681-0.309c-0.063-0.002-0.104-0.033-0.117-0.073  c-0.014-0.039,0.001-0.088,0.054-0.127c0.427-0.309,1.176-0.903,2.43-1.448c1.246-0.533,3.022-1.041,5.33-0.891  c2.791,0.194,4.68,0.906,6.136,1.645c0.73,0.383,1.377,0.745,1.948,1.219c0.289,0.221,0.579,0.443,0.874,0.668  c0.287,0.231,0.539,0.519,0.821,0.787c0.797,0.698,1.516,1.762,2.145,2.682c0.556,0.98,0.956,1.882,1.187,2.34  C57.463,357.349,57.449,357.382,57.421,357.396z"></path>
<path id="_x23_56B847" fill="#56B847" d="M59.853,423.832c0.847,3.919-0.269,8.316-3.29,13.068c-0.122,0.01-0.276,0.019-0.468,0.022  c-0.446,0.02-1.058-0.026-1.703-0.15c-1.301-0.227-2.674-0.825-3.372-0.788c0.835,1.202,2.391,2.018,3.716,2.236  c0.621,0.121,1.17,0.093,1.578,0.061c0.033,2.264-0.125,9.442-3.281,12.781c-1.083,1.146-2.382,1.703-3.972,1.703  c-1.962,0-3.863-0.923-5.65-2.743c-4.713-4.8-7.983-15.17-8.305-25.883c-0.015-0.507,0.033-0.809,0.105-0.452  c0.392,3.242,4.209,5.62,7.222,3.939c2.62-1.817,2.758-5.43,2.413-8.215c-0.42,2.569-0.8,5.669-3.028,7.152  c-2.331,1.065-5.028-0.604-5.623-3.128c-0.359-1.187-0.52-2.471-0.559-3.78c-0.017-0.566-0.048-0.891-0.048-1.056  c0-0.147-0.271,0.364-0.51,0.885c-0.219,0.478-0.476,0.91-0.766,1.154c-0.786,0.659-2.312,0.97-4.215-0.188  c-1.624-0.99-2.968-4.628-2.745-7.06c0.041-0.449,0.402-0.979,0.746-1.525c0.678-1.114,1.81-2.062,2.12-2.685  c-1.469,0.148-2.915,1.293-3.594,2.474c-0.343,0.549-0.515,1.079-0.623,1.475c-2.094-0.812-8.583-4.377-7.787-17.23  c0.913-14.729,7.278-14.859,7.407-14.859c0.001,0,0.001,0,0.002,0l0.725,0.029l-0.05-0.723c-0.021-0.302-0.423-7.419,7.498-8.206  l0.463-0.046l0.106-0.453c0.024-0.103,2.399-10.088,6.965-14.28c0.153-0.141,0.335-0.226,0.541-0.261  c0.633-0.105,1.889-0.249,3.459-0.1c-1.895,3.294-8.42,15.442-9.398,28.01c-2.624-1.084-5.954-0.983-8.435,0.119  c0.633,0.056,1.246,0.055,1.854,0.058c4.003,0.073,8.247,0.905,10.561,4.575c-0.361,0.283-0.709,0.584-1.023,0.906  c0.519-0.13,0.981-0.325,1.457-0.468c3.332-1.148,6.554-0.373,9.413,1.827c-0.94-2.088-3.029-3.345-5.222-3.57  c-1.291-10.893,4.837-26.374,6.236-29.727c0.778,0.45,1.558,0.994,2.317,1.681c-0.343,1.709-1.71,8.859-1.33,12.266l0.027,0.243  l0.18,0.165c0.112,0.103,11.195,10.442,6.375,24.232l-0.081,0.231l0.092,0.227c1.22,3.018,3.908,11.36,1.721,13.687  c-0.673,0.715-1.871,0.79-3.564,0.23c0.061-2.152-0.341-4.322-1.231-6.218c0.235,4.833-0.013,9.386-1.628,13.936  c0.705-0.787,1.25-1.688,1.694-2.638C56.148,417.369,58.962,419.708,59.853,423.832z M39.994,389.687  c0.024-0.019,0.044-0.042,0.068-0.06c0.932-0.702,2.035-1.082,3.164-1.182c-1.28-11.439,5.001-27.055,6.383-30.314  c-0.999-0.451-1.978-0.75-2.893-0.931c-1.402,2.374-8.688,15.285-9.532,28.469C38.581,386.559,39.624,387.884,39.994,389.687z"></path>
<g>
</g>
<g>
</g>
<g>
</g>
<g>
</g>
<g>
</g>
</svg>
